<?xml version="1.0" standalone="no"?>
<!DOCTYPE svg PUBLIC "-//W3C//DTD SVG 20010904//EN"
 "http://www.w3.org/TR/2001/REC-SVG-20010904/DTD/svg10.dtd">
<svg version="1.0" xmlns="http://www.w3.org/2000/svg"
 width="700.000000pt" height="700.000000pt" viewBox="0 0 700.000000 700.000000"
 preserveAspectRatio="xMidYMid meet">
<metadata>
Created by potrace 1.11, written by Peter Selinger 2001-2013
</metadata>
<g transform="translate(0.000000,700.000000) scale(0.100000,-0.100000)"
fill="#000000" stroke="none">
<path d="M0 3500 l0 -3500 3500 0 3500 0 0 3500 0 3500 -3500 0 -3500 0 0
-3500z m3085 554 c236 -756 432 -1377 435 -1379 3 -2 183 569 400 1268 216
700 409 1320 427 1380 l34 107 605 0 c588 0 605 -1 599 -19 -3 -10 -325 -878
-714 -1927 l-709 -1909 -650 -3 -651 -2 -19 52 c-11 29 -338 896 -726 1926
-388 1030 -706 1875 -706 1878 0 2 280 4 623 4 l622 0 430 -1376z"/>
</g>
</svg>
